<svg version="1.1" preserveAspectRatio="none" xmlns="http://www.w3.org/2000/svg" width="500" height="500" viewBox="0 0 500 500"><rect width="100%" height="100%" fill="#1E1F22" fill-opacity="1"/><svg viewBox="27.4485 211.6 408.3625 76.8" width="333" height="62.62671033701674" x="83.5px" y="218.6866px" xmlns="http://www.w3.org/2000/svg" xmlns:xlink="http://www.w3.org/1999/xlink" preserveAspectRatio="none"><defs></defs><style>.companyName {fill:#EBE7D9;fill-opacity:1;}.icon3 {fill:#F55139;fill-opacity:1;}.icon3-str {stroke:#F55139;stroke-opacity:1;}</style><g opacity="1" transform="rotate(0 27.4485 267.6)">
<svg width="345.7733" height="20.8" x="27.4485" y="267.6" version="1.1" preserveAspectRatio="none" viewBox="3.64 -30.28 636.36 38.28">
  <g transform="matrix(1 0 0 1 0 0)" class="icon3"><path id="id-6izo4zJp31" d="M14.88-21.40Q17.96-21.40 20.40-20.04Q22.84-18.68 24.22-16.24Q25.60-13.80 25.60-10.60L25.60-10.60Q25.60-7.40 24.22-4.94Q22.84-2.48 20.40-1.12Q17.96 0.24 14.88 0.24L14.88 0.24Q12.52 0.24 10.56-0.68Q8.60-1.60 7.32-3.36L7.32-3.36L7.32 0L3.64 0L3.64-29.68L7.48-29.68L7.48-18Q8.76-19.68 10.68-20.54Q12.60-21.40 14.88-21.40L14.88-21.40ZM14.56-3.12Q16.60-3.12 18.22-4.06Q19.84-5 20.78-6.70Q21.72-8.40 21.72-10.60L21.72-10.60Q21.72-12.80 20.78-14.50Q19.84-16.20 18.22-17.12Q16.60-18.04 14.56-18.04L14.56-18.04Q12.56-18.04 10.92-17.12Q9.28-16.20 8.36-14.50Q7.44-12.80 7.44-10.60L7.44-10.60Q7.44-8.40 8.36-6.70Q9.28-5 10.92-4.06Q12.56-3.12 14.56-3.12L14.56-3.12Z M51.28-10.48Q51.28-10.04 51.20-9.32L51.20-9.32L34-9.32Q34.36-6.52 36.46-4.82Q38.56-3.12 41.68-3.12L41.68-3.12Q45.48-3.12 47.80-5.68L47.80-5.68L49.92-3.20Q48.48-1.52 46.34-0.64Q44.20 0.24 41.56 0.24L41.56 0.24Q38.20 0.24 35.60-1.14Q33-2.52 31.58-5Q30.16-7.48 30.16-10.60L30.16-10.60Q30.16-13.68 31.54-16.16Q32.92-18.64 35.34-20.02Q37.76-21.40 40.80-21.40L40.80-21.40Q43.84-21.40 46.22-20.02Q48.60-18.64 49.94-16.16Q51.28-13.68 51.28-10.48L51.28-10.48ZM40.80-18.16Q38.04-18.16 36.18-16.48Q34.32-14.80 34-12.08L34-12.08L47.60-12.08Q47.28-14.76 45.42-16.46Q43.56-18.16 40.80-18.16L40.80-18.16Z M68.52-4L69.72-1.24Q68.88-0.52 67.64-0.14Q66.40 0.24 65.08 0.24L65.08 0.24Q61.88 0.24 60.12-1.48Q58.36-3.20 58.36-6.40L58.36-6.40L58.36-18.04L54.76-18.04L54.76-21.20L58.36-21.20L58.36-25.84L62.20-25.84L62.20-21.20L68.28-21.20L68.28-18.04L62.20-18.04L62.20-6.56Q62.20-4.84 63.06-3.92Q63.92-3 65.52-3L65.52-3Q67.28-3 68.52-4L68.52-4Z M85.76-4L86.96-1.24Q86.12-0.52 84.88-0.14Q83.64 0.24 82.32 0.24L82.32 0.24Q79.12 0.24 77.36-1.48Q75.60-3.20 75.60-6.40L75.60-6.40L75.60-18.04L72-18.04L72-21.20L75.60-21.20L75.60-25.84L79.44-25.84L79.44-21.20L85.52-21.20L85.52-18.04L79.44-18.04L79.44-6.56Q79.44-4.84 80.30-3.92Q81.16-3 82.76-3L82.76-3Q84.52-3 85.76-4L85.76-4Z M111.24-10.48Q111.24-10.04 111.16-9.32L111.16-9.32L93.96-9.32Q94.32-6.52 96.42-4.82Q98.52-3.12 101.64-3.12L101.64-3.12Q105.44-3.12 107.76-5.68L107.76-5.68L109.88-3.20Q108.44-1.52 106.30-0.64Q104.16 0.24 101.52 0.24L101.52 0.24Q98.16 0.24 95.56-1.14Q92.96-2.52 91.54-5Q90.12-7.48 90.12-10.60L90.12-10.60Q90.12-13.68 91.50-16.16Q92.88-18.64 95.30-20.02Q97.72-21.40 100.76-21.40L100.76-21.40Q103.80-21.40 106.18-20.02Q108.56-18.64 109.90-16.16Q111.24-13.68 111.24-10.48L111.24-10.48ZM100.76-18.16Q98.00-18.16 96.14-16.48Q94.28-14.80 93.96-12.08L93.96-12.08L107.56-12.08Q107.24-14.76 105.38-16.46Q103.52-18.16 100.76-18.16L100.76-18.16Z M121.44-17.64Q122.44-19.48 124.40-20.44Q126.36-21.40 129.16-21.40L129.16-21.40L129.16-17.68Q128.84-17.72 128.28-17.72L128.28-17.72Q125.16-17.72 123.38-15.86Q121.60-14 121.60-10.56L121.60-10.56L121.60 0L117.76 0L117.76-21.20L121.44-21.20L121.44-17.64Z M153.40 0.24Q150.80 0.24 148.40-0.46Q146.00-1.16 144.64-2.24L144.64-2.24L146.24-5.28Q147.64-4.28 149.64-3.68Q151.64-3.08 153.68-3.08L153.68-3.08Q158.72-3.08 158.72-5.96L158.72-5.96Q158.72-6.92 158.04-7.48Q157.36-8.04 156.34-8.30Q155.32-8.56 153.44-8.88L153.44-8.88Q150.88-9.28 149.26-9.80Q147.64-10.32 146.48-11.56Q145.32-12.80 145.32-15.04L145.32-15.04Q145.32-17.92 147.72-19.66Q150.12-21.40 154.16-21.40L154.16-21.40Q156.28-21.40 158.40-20.88Q160.52-20.36 161.88-19.48L161.88-19.48L160.24-16.44Q157.64-18.12 154.12-18.12L154.12-18.12Q151.68-18.12 150.40-17.32Q149.12-16.52 149.12-15.20L149.12-15.20Q149.12-14.16 149.84-13.56Q150.56-12.96 151.62-12.68Q152.68-12.40 154.60-12.04L154.60-12.04Q157.16-11.60 158.74-11.10Q160.32-10.60 161.44-9.40Q162.56-8.20 162.56-6.04L162.56-6.04Q162.56-3.16 160.10-1.46Q157.64 0.24 153.40 0.24L153.40 0.24Z M177.64 0.24Q174.48 0.24 171.96-1.16Q169.44-2.56 168.02-5.02Q166.60-7.48 166.60-10.60L166.60-10.60Q166.60-13.72 168.02-16.18Q169.44-18.64 171.96-20.02Q174.48-21.40 177.64-21.40L177.64-21.40Q180.80-21.40 183.30-20.02Q185.80-18.64 187.22-16.18Q188.64-13.72 188.64-10.60L188.64-10.60Q188.64-7.48 187.22-5.02Q185.80-2.56 183.30-1.16Q180.80 0.24 177.64 0.24L177.64 0.24ZM177.64-3.12Q179.68-3.12 181.30-4.06Q182.92-5 183.84-6.70Q184.76-8.40 184.76-10.60L184.76-10.60Q184.76-12.80 183.84-14.50Q182.92-16.20 181.30-17.12Q179.68-18.04 177.64-18.04L177.64-18.04Q175.60-18.04 173.98-17.12Q172.36-16.20 171.42-14.50Q170.48-12.80 170.48-10.60L170.48-10.60Q170.48-8.40 171.42-6.70Q172.36-5 173.98-4.06Q175.60-3.12 177.64-3.12L177.64-3.12Z M202.92-26.76Q199.48-26.76 199.48-23.04L199.48-23.04L199.48-21.20L205.64-21.20L205.64-18.04L199.56-18.04L199.56 0L195.72 0L195.72-18.04L192.12-18.04L192.12-21.20L195.72-21.20L195.72-23.08Q195.72-26.24 197.56-28.08Q199.40-29.92 202.72-29.92L202.72-29.92Q204.00-29.92 205.12-29.60Q206.24-29.28 207.04-28.68L207.04-28.68L205.88-25.76Q204.56-26.76 202.92-26.76L202.92-26.76Z M221.20-4L222.40-1.24Q221.56-0.52 220.32-0.14Q219.08 0.24 217.76 0.24L217.76 0.24Q214.56 0.24 212.80-1.48Q211.04-3.20 211.04-6.40L211.04-6.40L211.04-18.04L207.44-18.04L207.44-21.20L211.04-21.20L211.04-25.84L214.88-25.84L214.88-21.20L220.96-21.20L220.96-18.04L214.88-18.04L214.88-6.56Q214.88-4.84 215.74-3.92Q216.60-3 218.20-3L218.20-3Q219.96-3 221.20-4L221.20-4Z M235.96-21.40Q240.36-21.40 242.70-19.24Q245.04-17.08 245.04-12.80L245.04-12.80L245.04 0L241.40 0L241.40-2.80Q240.44-1.32 238.66-0.54Q236.88 0.24 234.44 0.24L234.44 0.24Q230.88 0.24 228.74-1.48Q226.60-3.20 226.60-6L226.60-6Q226.60-8.80 228.64-10.50Q230.68-12.20 235.12-12.20L235.12-12.20L241.20-12.20L241.20-12.96Q241.20-15.44 239.76-16.76Q238.32-18.08 235.52-18.08L235.52-18.08Q233.64-18.08 231.84-17.46Q230.04-16.84 228.80-15.80L228.80-15.80L227.20-18.68Q228.84-20 231.12-20.70Q233.40-21.40 235.96-21.40L235.96-21.40ZM235.08-2.72Q237.28-2.72 238.88-3.70Q240.48-4.68 241.20-6.48L241.20-6.48L241.20-9.44L235.28-9.44Q230.40-9.44 230.40-6.16L230.40-6.16Q230.40-4.56 231.64-3.64Q232.88-2.72 235.08-2.72L235.08-2.72Z M281.60-21.20L285.04-21.20L277.12 0L273.44 0L267.32-16.08L261.12 0L257.44 0L249.56-21.20L253.20-21.20L259.36-4.32L265.76-21.20L269.00-21.20L275.28-4.24L281.60-21.20Z M293.80-17.64Q294.80-19.48 296.76-20.44Q298.72-21.40 301.52-21.40L301.52-21.40L301.52-17.68Q301.20-17.72 300.64-17.72L300.64-17.72Q297.52-17.72 295.74-15.86Q293.96-14 293.96-10.56L293.96-10.56L293.96 0L290.12 0L290.12-21.20L293.80-21.20L293.80-17.64Z M326.40-10.48Q326.40-10.04 326.32-9.32L326.32-9.32L309.12-9.32Q309.48-6.52 311.58-4.82Q313.68-3.12 316.80-3.12L316.80-3.12Q320.60-3.12 322.92-5.68L322.92-5.68L325.04-3.20Q323.60-1.52 321.46-0.64Q319.32 0.24 316.68 0.24L316.68 0.24Q313.32 0.24 310.72-1.14Q308.12-2.52 306.70-5Q305.28-7.48 305.28-10.60L305.28-10.60Q305.28-13.68 306.66-16.16Q308.04-18.64 310.46-20.02Q312.88-21.40 315.92-21.40L315.92-21.40Q318.96-21.40 321.34-20.02Q323.72-18.64 325.06-16.16Q326.40-13.68 326.40-10.48L326.40-10.48ZM315.92-18.16Q313.16-18.16 311.30-16.48Q309.44-14.80 309.12-12.08L309.12-12.08L322.72-12.08Q322.40-14.76 320.54-16.46Q318.68-18.16 315.92-18.16L315.92-18.16Z M352.64-26.76Q349.20-26.76 349.20-23.04L349.20-23.04L349.20-21.20L355.36-21.20L355.36-18.04L349.28-18.04L349.28 0L345.44 0L345.44-18.04L341.84-18.04L341.84-21.20L345.44-21.20L345.44-23.08Q345.44-26.24 347.28-28.08Q349.12-29.92 352.44-29.92L352.44-29.92Q353.72-29.92 354.84-29.60Q355.96-29.28 356.76-28.68L356.76-28.68L355.60-25.76Q354.28-26.76 352.64-26.76L352.64-26.76Z M368.96 0.24Q365.80 0.24 363.28-1.16Q360.76-2.56 359.34-5.02Q357.92-7.48 357.92-10.60L357.92-10.60Q357.92-13.72 359.34-16.18Q360.76-18.64 363.28-20.02Q365.80-21.40 368.96-21.40L368.96-21.40Q372.12-21.40 374.62-20.02Q377.12-18.64 378.54-16.18Q379.96-13.72 379.96-10.60L379.96-10.60Q379.96-7.48 378.54-5.02Q377.12-2.56 374.62-1.16Q372.12 0.24 368.96 0.24L368.96 0.24ZM368.96-3.12Q371.00-3.12 372.62-4.06Q374.24-5 375.16-6.70Q376.08-8.40 376.08-10.60L376.08-10.60Q376.08-12.80 375.16-14.50Q374.24-16.20 372.62-17.12Q371.00-18.04 368.96-18.04L368.96-18.04Q366.92-18.04 365.30-17.12Q363.68-16.20 362.74-14.50Q361.80-12.80 361.80-10.60L361.80-10.60Q361.80-8.40 362.74-6.70Q363.68-5 365.30-4.06Q366.92-3.12 368.96-3.12L368.96-3.12Z M390.16-17.64Q391.16-19.48 393.12-20.44Q395.08-21.40 397.88-21.40L397.88-21.40L397.88-17.68Q397.56-17.72 397.00-17.72L397.00-17.72Q393.88-17.72 392.10-15.86Q390.32-14 390.32-10.56L390.32-10.56L390.32 0L386.48 0L386.48-21.20L390.16-21.20L390.16-17.64Z M435.20-10.48Q435.20-10.04 435.12-9.32L435.12-9.32L417.92-9.32Q418.28-6.52 420.38-4.82Q422.48-3.12 425.60-3.12L425.60-3.12Q429.40-3.12 431.72-5.68L431.72-5.68L433.84-3.20Q432.40-1.52 430.26-0.64Q428.12 0.24 425.48 0.24L425.48 0.24Q422.12 0.24 419.52-1.14Q416.92-2.52 415.50-5Q414.08-7.48 414.08-10.60L414.08-10.60Q414.08-13.68 415.46-16.16Q416.84-18.64 419.26-20.02Q421.68-21.40 424.72-21.40L424.72-21.40Q427.76-21.40 430.14-20.02Q432.52-18.64 433.86-16.16Q435.20-13.68 435.20-10.48L435.20-10.48ZM424.72-18.16Q421.96-18.16 420.10-16.48Q418.24-14.80 417.92-12.08L417.92-12.08L431.52-12.08Q431.20-14.76 429.34-16.46Q427.48-18.16 424.72-18.16L424.72-18.16Z M449.48-26.76Q446.04-26.76 446.04-23.04L446.04-23.04L446.04-21.20L452.20-21.20L452.20-18.04L446.12-18.04L446.12 0L442.28 0L442.28-18.04L438.68-18.04L438.68-21.20L442.28-21.20L442.28-23.08Q442.28-26.24 444.12-28.08Q445.96-29.92 449.28-29.92L449.28-29.92Q450.56-29.92 451.68-29.60Q452.80-29.28 453.60-28.68L453.60-28.68L452.44-25.76Q451.12-26.76 449.48-26.76L449.48-26.76Z M464.80-26.76Q461.36-26.76 461.36-23.04L461.36-23.04L461.36-21.20L467.52-21.20L467.52-18.04L461.44-18.04L461.44 0L457.60 0L457.60-18.04L454.00-18.04L454.00-21.20L457.60-21.20L457.60-23.08Q457.60-26.24 459.44-28.08Q461.28-29.92 464.60-29.92L464.60-29.92Q465.88-29.92 467.00-29.60Q468.12-29.28 468.92-28.68L468.92-28.68L467.76-25.76Q466.44-26.76 464.80-26.76L464.80-26.76Z M491.20-10.48Q491.20-10.04 491.12-9.32L491.12-9.32L473.92-9.32Q474.28-6.52 476.38-4.82Q478.48-3.12 481.60-3.12L481.60-3.12Q485.40-3.12 487.72-5.68L487.72-5.68L489.84-3.20Q488.40-1.52 486.26-0.64Q484.12 0.24 481.48 0.24L481.48 0.24Q478.12 0.24 475.52-1.14Q472.92-2.52 471.50-5Q470.08-7.48 470.08-10.60L470.08-10.60Q470.08-13.68 471.46-16.16Q472.84-18.64 475.26-20.02Q477.68-21.40 480.72-21.40L480.72-21.40Q483.76-21.40 486.14-20.02Q488.52-18.64 489.86-16.16Q491.20-13.68 491.20-10.48L491.20-10.48ZM480.72-18.16Q477.96-18.16 476.10-16.48Q474.24-14.80 473.92-12.08L473.92-12.08L487.52-12.08Q487.20-14.76 485.34-16.46Q483.48-18.16 480.72-18.16L480.72-18.16Z M506.96 0.24Q503.72 0.24 501.18-1.16Q498.64-2.56 497.20-5.02Q495.76-7.48 495.76-10.60L495.76-10.60Q495.76-13.72 497.20-16.18Q498.64-18.64 501.18-20.02Q503.72-21.40 506.96-21.40L506.96-21.40Q509.84-21.40 512.10-20.24Q514.36-19.08 515.60-16.88L515.60-16.88L512.68-15Q511.68-16.52 510.20-17.28Q508.72-18.04 506.92-18.04L506.92-18.04Q504.84-18.04 503.18-17.12Q501.52-16.20 500.58-14.50Q499.64-12.80 499.64-10.60L499.64-10.60Q499.64-8.36 500.58-6.66Q501.52-4.96 503.18-4.04Q504.84-3.12 506.92-3.12L506.92-3.12Q508.72-3.12 510.20-3.88Q511.68-4.64 512.68-6.16L512.68-6.16L515.60-4.32Q514.36-2.12 512.10-0.94Q509.84 0.24 506.96 0.24L506.96 0.24Z M521.76 0L521.76-21.20L525.60-21.20L525.60 0L521.76 0ZM523.68-25.28Q522.56-25.28 521.82-26Q521.08-26.72 521.08-27.76L521.08-27.76Q521.08-28.80 521.82-29.54Q522.56-30.28 523.68-30.28L523.68-30.28Q524.80-30.28 525.54-29.58Q526.28-28.88 526.28-27.84L526.28-27.84Q526.28-26.76 525.54-26.02Q524.80-25.28 523.68-25.28L523.68-25.28Z M553.28-10.48Q553.28-10.04 553.20-9.32L553.20-9.32L536.00-9.32Q536.36-6.52 538.46-4.82Q540.56-3.12 543.68-3.12L543.68-3.12Q547.48-3.12 549.80-5.68L549.80-5.68L551.92-3.20Q550.48-1.52 548.34-0.64Q546.20 0.24 543.56 0.24L543.56 0.24Q540.20 0.24 537.60-1.14Q535.00-2.52 533.58-5Q532.16-7.48 532.16-10.60L532.16-10.60Q532.16-13.68 533.54-16.16Q534.92-18.64 537.34-20.02Q539.76-21.40 542.80-21.40L542.80-21.40Q545.84-21.40 548.22-20.02Q550.60-18.64 551.94-16.16Q553.28-13.68 553.28-10.48L553.28-10.48ZM542.80-18.16Q540.04-18.16 538.18-16.48Q536.32-14.80 536.00-12.08L536.00-12.08L549.60-12.08Q549.28-14.76 547.42-16.46Q545.56-18.16 542.80-18.16L542.80-18.16Z M571.12-21.40Q575.16-21.40 577.54-19.06Q579.92-16.72 579.92-12.20L579.92-12.20L579.92 0L576.08 0L576.08-11.76Q576.08-14.84 574.60-16.40Q573.12-17.96 570.36-17.96L570.36-17.96Q567.24-17.96 565.44-16.14Q563.64-14.32 563.64-10.92L563.64-10.92L563.64 0L559.80 0L559.80-21.20L563.48-21.20L563.48-18Q564.64-19.64 566.62-20.52Q568.60-21.40 571.12-21.40L571.12-21.40Z M597.60 0.24Q594.36 0.24 591.82-1.16Q589.28-2.56 587.84-5.02Q586.40-7.48 586.40-10.60L586.40-10.60Q586.40-13.72 587.84-16.18Q589.28-18.64 591.82-20.02Q594.36-21.40 597.60-21.40L597.60-21.40Q600.48-21.40 602.74-20.24Q605.00-19.08 606.24-16.88L606.24-16.88L603.32-15Q602.32-16.52 600.84-17.28Q599.36-18.04 597.56-18.04L597.56-18.04Q595.48-18.04 593.82-17.12Q592.16-16.20 591.22-14.50Q590.28-12.80 590.28-10.60L590.28-10.60Q590.28-8.36 591.22-6.66Q592.16-4.96 593.82-4.04Q595.48-3.12 597.56-3.12L597.56-3.12Q599.36-3.12 600.84-3.88Q602.32-4.64 603.32-6.16L603.32-6.16L606.24-4.32Q605.00-2.12 602.74-0.94Q600.48 0.24 597.60 0.24L597.60 0.24Z M627.12-21.20L630.88-21.20L620.60 2.12Q619.24 5.36 617.42 6.68Q615.60 8 613.04 8L613.04 8Q611.48 8 610.02 7.50Q608.56 7 607.60 6.04L607.60 6.04L609.24 3.16Q610.88 4.72 613.04 4.72L613.04 4.72Q614.44 4.72 615.38 3.98Q616.32 3.24 617.08 1.44L617.08 1.44L617.76-0.04L608.40-21.20L612.40-21.20L619.80-4.24L627.12-21.20Z M635.88-8.84L635.16-28L639.68-28L638.92-8.84L635.88-8.84ZM637.44 0.24Q636.32 0.24 635.56-0.50Q634.80-1.24 634.80-2.32L634.80-2.32Q634.80-3.40 635.56-4.14Q636.32-4.88 637.44-4.88L637.44-4.88Q638.56-4.88 639.28-4.14Q640.00-3.40 640.00-2.32L640.00-2.32Q640.00-1.24 639.26-0.50Q638.52 0.24 637.44 0.24L637.44 0.24Z"/></g>
</svg>
</g><g opacity="1" transform="rotate(0 77.4682 211.6)">
<svg width="358.3428" height="40" x="77.4682" y="211.6" version="1.1" preserveAspectRatio="none" viewBox="-0.32 -28.48 259.44 28.96">
  <g transform="matrix(1 0 0 1 0 0)" class="companyName"><path id="id-D6z1nYkh9" d="M10.92 0.48Q7.60 0.48 4.56-0.40Q1.52-1.28-0.32-2.64L-0.32-2.64L2.32-7.64Q4.24-6.24 6.64-5.48Q9.04-4.72 11.56-4.72L11.56-4.72Q14.24-4.72 15.80-5.60Q17.36-6.48 17.36-8L17.36-8Q17.36-9.24 16.12-9.90Q14.88-10.56 12.16-11.32L12.16-11.32Q9.44-12.12 7.72-12.86Q6-13.60 4.74-15.08Q3.48-16.56 3.48-19L3.48-19Q3.48-21.84 5.06-24Q6.64-26.16 9.54-27.32Q12.44-28.48 16.28-28.48L16.28-28.48Q19.12-28.48 21.64-27.86Q24.16-27.24 25.96-26.08L25.96-26.08L23.52-21.12Q21.96-22.20 20-22.74Q18.04-23.28 15.92-23.28L15.92-23.28Q13.16-23.28 11.56-22.32Q9.96-21.36 9.96-19.84L9.96-19.84Q9.96-18.92 10.64-18.30Q11.32-17.68 12.36-17.30Q13.40-16.92 15.28-16.40L15.28-16.40Q17.96-15.68 19.68-14.94Q21.40-14.20 22.62-12.78Q23.84-11.36 23.84-9.04L23.84-9.04Q23.84-6.16 22.24-4.02Q20.64-1.88 17.72-0.70Q14.80 0.48 10.92 0.48L10.92 0.48Z M41.20 0.48Q37 0.48 33.92-1.04Q30.84-2.56 29.20-5.32Q27.56-8.08 27.56-11.68L27.56-11.68Q27.56-16.44 29.74-20.26Q31.92-24.08 35.86-26.28Q39.80-28.48 44.88-28.48L44.88-28.48Q49.08-28.48 52.16-26.96Q55.24-25.44 56.88-22.68Q58.52-19.92 58.52-16.32L58.52-16.32Q58.52-11.56 56.34-7.74Q54.16-3.92 50.22-1.72Q46.28 0.48 41.20 0.48L41.20 0.48ZM41.76-5.04Q44.84-5.04 47.16-6.52Q49.48-8 50.72-10.48Q51.96-12.96 51.96-15.96L51.96-15.96Q51.96-19.16 49.96-21.06Q47.96-22.96 44.32-22.96L44.32-22.96Q41.24-22.96 38.92-21.48Q36.60-20 35.36-17.52Q34.12-15.04 34.12-12.04L34.12-12.04Q34.12-8.84 36.12-6.94Q38.12-5.04 41.76-5.04L41.76-5.04Z M86.12-22.80L71.48-22.80L70-15.40L83-15.40L81.92-10.20L69-10.20L66.96 0L60.44 0L66.04-28L87.20-28L86.12-22.80Z M100.24 0.48Q96.04 0.48 92.96-1.04Q89.88-2.56 88.24-5.32Q86.60-8.08 86.60-11.68L86.60-11.68Q86.60-16.44 88.78-20.26Q90.96-24.08 94.90-26.28Q98.84-28.48 103.92-28.48L103.92-28.48Q108.12-28.48 111.20-26.96Q114.28-25.44 115.92-22.68Q117.56-19.92 117.56-16.32L117.56-16.32Q117.56-11.56 115.38-7.74Q113.20-3.92 109.26-1.72Q105.32 0.48 100.24 0.48L100.24 0.48ZM100.80-5.04Q103.88-5.04 106.20-6.52Q108.52-8 109.76-10.48Q111-12.96 111-15.96L111-15.96Q111-19.16 109-21.06Q107-22.96 103.36-22.96L103.36-22.96Q100.28-22.96 97.96-21.48Q95.64-20 94.40-17.52Q93.16-15.04 93.16-12.04L93.16-12.04Q93.16-8.84 95.16-6.94Q97.16-5.04 100.80-5.04L100.80-5.04Z M144.36-28L150.76-28L145.16 0L139.84 0L129.40-17.52L125.88 0L119.48 0L125.08-28L130.44-28L140.88-10.44L144.36-28Z M177.48-22.80L162.80-22.80L161.60-16.72L174.60-16.72L173.60-11.68L160.56-11.68L159.28-5.20L174.56-5.20L173.48 0L151.80 0L157.40-28L178.56-28L177.48-22.80Z M208.28-28L193.72-9.72L191.80 0L185.32 0L187.28-10L180.08-28L186.56-28L191.56-15.52L201.60-28L208.28-28Z M224.92 0L223.60-6L210.56-6L206.92 0L200.00 0L218.12-28L224.52-28L231.40 0L224.92 0ZM213.56-10.92L222.52-10.92L220.16-21.72L213.56-10.92Z M244.08 0.48Q240.76 0.48 237.72-0.40Q234.68-1.28 232.84-2.64L232.84-2.64L235.48-7.64Q237.40-6.24 239.80-5.48Q242.20-4.72 244.72-4.72L244.72-4.72Q247.40-4.72 248.96-5.60Q250.52-6.48 250.52-8L250.52-8Q250.52-9.24 249.28-9.90Q248.04-10.56 245.32-11.32L245.32-11.32Q242.60-12.12 240.88-12.86Q239.16-13.60 237.90-15.08Q236.64-16.56 236.64-19L236.64-19Q236.64-21.84 238.22-24Q239.80-26.16 242.70-27.32Q245.60-28.48 249.44-28.48L249.44-28.48Q252.28-28.48 254.80-27.86Q257.32-27.24 259.12-26.08L259.12-26.08L256.68-21.12Q255.12-22.20 253.16-22.74Q251.20-23.28 249.08-23.28L249.08-23.28Q246.32-23.28 244.72-22.32Q243.12-21.36 243.12-19.84L243.12-19.84Q243.12-18.92 243.80-18.30Q244.48-17.68 245.52-17.30Q246.56-16.92 248.44-16.40L248.44-16.40Q251.12-15.68 252.84-14.94Q254.56-14.20 255.78-12.78Q257.00-11.36 257.00-9.04L257.00-9.04Q257.00-6.16 255.40-4.02Q253.80-1.88 250.88-0.70Q247.96 0.48 244.08 0.48L244.08 0.48Z"/></g>
</svg>
</g><g opacity="1" transform="rotate(0 27.4485 211.6)">
<svg width="50.0197" height="40" x="27.4485" y="211.6" version="1.1" preserveAspectRatio="none" viewBox="-4.6 -33.68 47.12 37.68">
  <g transform="matrix(1 0 0 1 0 0)" class="icon3"><path id="id-hTdFi603-2" d="M-4.60 4L15.88-33.68L24.12-33.68L3.64 4L-4.60 4Z M13.80 4L34.28-33.68L42.52-33.68L22.04 4L13.80 4Z"/></g>
</svg>
</g></svg></svg>