<svg version="1.1" preserveAspectRatio="none" xmlns="http://www.w3.org/2000/svg" width="500" height="500" viewBox="0 0 500 500"><rect width="100%" height="100%" fill="#010506" fill-opacity="1"/><svg viewBox="15.6175 250.9332 552.5213 140.92" width="333" height="84.93131396020388" x="83.5px" y="207.5343px" xmlns="http://www.w3.org/2000/svg" xmlns:xlink="http://www.w3.org/1999/xlink" preserveAspectRatio="none"><defs></defs><style>.background {fill:#010506;fill-opacity:1;}.companyName {fill:#EEF8F7;fill-opacity:1;}.icon1 {fill:#E35F21;fill-opacity:1;}.icon2 {fill:#EEF8F7;fill-opacity:1;}.icon3 {fill:#FAAB05;fill-opacity:1;}.icon3-str {stroke:#FAAB05;stroke-opacity:1;}.shapeStroke-str {stroke:#E35F21;stroke-opacity:1;}.text {fill:#EEF8F7;fill-opacity:1;}</style><g opacity="1" transform="rotate(0 15.6175 250.9332)">
<svg width="140.92" height="140.92" x="15.6175" y="250.9332" version="1.1" preserveAspectRatio="none" viewBox="0 0 140.92 140.92">
  <defs><rect x="0" y="0" width="140.92" height="140.92" rx="150px" ry="150px" id="id-3WKIowxM31712231475087"></rect></defs><use class="icon1 shapeStroke-str" style="stroke-width:0;" xlink:href="#id-3WKIowxM31712231475087"></use>
</svg>
</g><g opacity="1" transform="rotate(0 36.7555 272.3437)">
<svg width="98.644" height="98.099" x="36.7555" y="272.3437" version="1.1" preserveAspectRatio="none" viewBox="9.5 10 181 180">
  <g transform="matrix(1 0 0 1 0 0)"><g><path d="M100 10C50.098 10 9.5 50.374 9.5 100s40.598 90 90.5 90 90.5-40.374 90.5-90-40.598-90-90.5-90zm0 175.14c-47.207 0-85.613-38.194-85.613-85.14S52.793 14.86 100 14.86s85.613 38.194 85.613 85.14-38.406 85.14-85.613 85.14z" data-color="1" class="background"></path><path d="M154.603 69.423c-5.972-5.388-11.815-8.689-54.407-8.689-42.055 0-48.792 3.28-54.902 8.694-12.036 10.815-9.942 21.935-9.847 22.403l.273 1.344 1.298.462c.622.221 15.427 5.363 33.194.039l1.738-.52V91.35c0-6.054-1.757-11.254-2.978-14.137 2.967-.7 10.868-1.802 31.223-1.802 20.1 0 27.854 1.079 30.75 1.764-1.221 2.874-2.994 8.093-2.994 14.175v1.806l1.738.52c6.018 1.802 11.694 2.405 16.596 2.405 9.572 0 16.186-2.298 16.597-2.444l1.288-.458.28-1.331c.101-.473 2.301-11.703-9.847-22.425zm5.187 20.072c-3.769 1.021-14.458 3.261-26.89.031.467-6.919 3.41-12.296 3.441-12.35l.371-.663-.073-.754c-.189-1.949-.506-5.209-36.442-5.209-35.61 0-36.427 3.145-36.865 4.835l-.241.94.47.847c.032.058 2.975 5.435 3.443 12.354-12.367 3.207-23.084.985-26.875-.031-.046-2.838.777-9.574 8.43-16.45 4.325-3.832 8.41-7.452 51.639-7.452 42.892 0 46.711 3.446 51.133 7.438l.021.018c7.745 6.834 8.509 13.622 8.438 16.446z" data-color="1" class="background"></path><path d="M79.111 85.457l-25.318 54.428h91.139L121.23 85.457H79.111zm-17.673 49.568l20.797-44.709h35.786l19.47 44.709H61.438z" data-color="1" class="background"></path></g></g>
</svg>
</g><g opacity="1" transform="rotate(0 176.5375 353.1932)">
<svg width="391.6013" height="22.4" x="176.5375" y="353.1932" version="1.1" preserveAspectRatio="none" viewBox="2.92 -30.64 717.4800000000001 41.04">
  <g transform="matrix(1 0 0 1 0 0)" class="text"><path id="id-6izo4zJp31" d="M15.04-22.24Q17.96-22.24 20.24-20.88Q22.52-19.52 23.82-16.96Q25.12-14.40 25.12-10.96L25.12-10.96Q25.12-7.52 23.82-4.98Q22.52-2.44 20.24-1.08Q17.96 0.28 15.04 0.28L15.04 0.28Q11.84 0.28 9.62-1.34Q7.40-2.96 6.56-5.60L6.56-5.60L6.56 0L2.92 0L2.92-29.60L6.56-29.60L6.56-16.36Q7.40-19 9.62-20.62Q11.84-22.24 15.04-22.24L15.04-22.24ZM14-19Q11.88-19 10.16-18.02Q8.44-17.04 7.48-15.20Q6.52-13.36 6.52-10.96L6.52-10.96Q6.52-8.56 7.48-6.74Q8.44-4.92 10.16-3.92Q11.88-2.92 14-2.92L14-2.92Q17.40-2.92 19.42-5.06Q21.44-7.20 21.44-10.96L21.44-10.96Q21.44-14.72 19.42-16.86Q17.40-19 14-19L14-19Z M54.08-12.20Q54.08-11.04 53.92-10.20L53.92-10.20L36.36-10.20Q36.48-6.44 38.50-4.56Q40.52-2.68 43.44-2.68L43.44-2.68Q46.08-2.68 47.86-4.02Q49.64-5.36 50.04-7.60L50.04-7.60L53.92-7.60Q53.52-5.32 52.14-3.52Q50.76-1.72 48.56-0.72Q46.36 0.28 43.60 0.28L43.60 0.28Q40.44 0.28 38-1.08Q35.56-2.44 34.18-4.98Q32.80-7.52 32.80-10.96L32.80-10.96Q32.80-14.40 34.18-16.96Q35.56-19.52 38-20.88Q40.44-22.24 43.60-22.24L43.60-22.24Q46.80-22.24 49.18-20.88Q51.56-19.52 52.82-17.24Q54.08-14.96 54.08-12.20L54.08-12.20ZM50.40-11.96Q50.52-14.40 49.60-16.04Q48.68-17.68 47.08-18.48Q45.48-19.28 43.60-19.28L43.60-19.28Q40.60-19.28 38.56-17.42Q36.52-15.56 36.36-11.96L36.36-11.96L50.40-11.96Z M71.08-3.20L73.32-3.20L73.32 0L70.60 0Q67.24 0 65.58-1.60Q63.92-3.20 63.92-6.96L63.92-6.96L63.92-18.80L60.64-18.80L60.64-21.96L63.92-21.96L63.92-27.44L67.60-27.44L67.60-21.96L73.28-21.96L73.28-18.80L67.60-18.80L67.60-6.88Q67.60-4.76 68.38-3.98Q69.16-3.20 71.08-3.20L71.08-3.20Z M90-3.20L92.24-3.20L92.24 0L89.52 0Q86.16 0 84.50-1.60Q82.84-3.20 82.84-6.96L82.84-6.96L82.84-18.80L79.56-18.80L79.56-21.96L82.84-21.96L82.84-27.44L86.52-27.44L86.52-21.96L92.20-21.96L92.20-18.80L86.52-18.80L86.52-6.88Q86.52-4.76 87.30-3.98Q88.08-3.20 90-3.20L90-3.20Z M120.88-12.20Q120.88-11.04 120.72-10.20L120.72-10.20L103.16-10.20Q103.28-6.44 105.30-4.56Q107.32-2.68 110.24-2.68L110.24-2.68Q112.88-2.68 114.66-4.02Q116.44-5.36 116.84-7.60L116.84-7.60L120.72-7.60Q120.32-5.32 118.94-3.52Q117.56-1.72 115.36-0.72Q113.16 0.28 110.40 0.28L110.40 0.28Q107.24 0.28 104.80-1.08Q102.36-2.44 100.98-4.98Q99.60-7.52 99.60-10.96L99.60-10.96Q99.60-14.40 100.98-16.96Q102.36-19.52 104.80-20.88Q107.24-22.24 110.40-22.24L110.40-22.24Q113.60-22.24 115.98-20.88Q118.36-19.52 119.62-17.24Q120.88-14.96 120.88-12.20L120.88-12.20ZM117.20-11.96Q117.32-14.40 116.40-16.04Q115.48-17.68 113.88-18.48Q112.28-19.28 110.40-19.28L110.40-19.28Q107.40-19.28 105.36-17.42Q103.32-15.56 103.16-11.96L103.16-11.96L117.20-11.96Z M133.28-17.52Q134.36-19.80 136.44-21.06Q138.52-22.32 141.40-22.32L141.40-22.32L141.40-18.36L140.28-18.36Q137.20-18.36 135.24-16.78Q133.28-15.20 133.28-11.56L133.28-11.56L133.28 0L129.64 0L129.64-21.96L133.28-21.96L133.28-17.52Z M169.76-22.24Q173.48-22.24 175.74-20.30Q178.00-18.36 178.48-15.08L178.48-15.08L175.00-15.08Q174.76-17.04 173.38-18.30Q172.00-19.56 169.68-19.56L169.68-19.56Q167.72-19.56 166.62-18.62Q165.52-17.68 165.52-16.08L165.52-16.08Q165.52-14.88 166.26-14.14Q167.00-13.40 168.10-13.02Q169.20-12.64 171.12-12.20L171.12-12.20Q173.56-11.64 175.06-11.06Q176.56-10.48 177.62-9.20Q178.68-7.92 178.68-5.76L178.68-5.76Q178.68-3.08 176.66-1.40Q174.64 0.28 171.28 0.28L171.28 0.28Q167.36 0.28 164.88-1.60Q162.40-3.48 161.96-6.84L161.96-6.84L165.48-6.84Q165.68-4.84 167.22-3.60Q168.76-2.36 171.28-2.36L171.28-2.36Q173.16-2.36 174.22-3.32Q175.28-4.28 175.28-5.84L175.28-5.84Q175.28-7.12 174.52-7.88Q173.76-8.64 172.64-9.04Q171.52-9.44 169.56-9.88L169.56-9.88Q167.12-10.44 165.66-11Q164.20-11.56 163.18-12.78Q162.16-14 162.16-16.08L162.16-16.08Q162.16-18.84 164.20-20.54Q166.24-22.24 169.76-22.24L169.76-22.24Z M197.52-22.24Q200.68-22.24 203.18-20.88Q205.68-19.52 207.10-16.96Q208.52-14.40 208.52-10.96L208.52-10.96Q208.52-7.52 207.10-4.98Q205.68-2.44 203.18-1.08Q200.68 0.28 197.52 0.28L197.52 0.28Q194.36 0.28 191.86-1.08Q189.36-2.44 187.92-4.98Q186.48-7.52 186.48-10.96L186.48-10.96Q186.48-14.40 187.92-16.96Q189.36-19.52 191.86-20.88Q194.36-22.24 197.52-22.24L197.52-22.24ZM197.52-19.04Q195.56-19.04 193.90-18.16Q192.24-17.28 191.22-15.46Q190.20-13.64 190.20-10.96L190.20-10.96Q190.20-8.32 191.22-6.50Q192.24-4.68 193.90-3.80Q195.56-2.92 197.52-2.92L197.52-2.92Q199.48-2.92 201.14-3.80Q202.80-4.68 203.82-6.50Q204.84-8.32 204.84-10.96L204.84-10.96Q204.84-13.64 203.82-15.46Q202.80-17.28 201.14-18.16Q199.48-19.04 197.52-19.04L197.52-19.04Z M227-27.16Q224.08-27.20 222.94-26.16Q221.80-25.12 221.80-22.56L221.80-22.56L221.80-21.96L227-21.96L227-18.76L221.80-18.76L221.80 0L218.16 0L218.16-18.76L215.00-18.76L215.00-21.96L218.16-21.96L218.16-22.84Q218.16-30.72 227-30.36L227-30.36L227-27.16Z M243.20-3.20L245.44-3.20L245.44 0L242.72 0Q239.36 0 237.70-1.60Q236.04-3.20 236.04-6.96L236.04-6.96L236.04-18.80L232.76-18.80L232.76-21.96L236.04-21.96L236.04-27.44L239.72-27.44L239.72-21.96L245.40-21.96L245.40-18.80L239.72-18.80L239.72-6.88Q239.72-4.76 240.50-3.98Q241.28-3.20 243.20-3.20L243.20-3.20Z M262.88-22.24Q266.08-22.24 268.30-20.64Q270.52-19.04 271.40-16.36L271.40-16.36L271.40-21.96L275.04-21.96L275.04 0L271.40 0L271.40-5.60Q270.52-2.92 268.30-1.32Q266.08 0.28 262.88 0.28L262.88 0.28Q259.96 0.28 257.68-1.08Q255.40-2.44 254.10-4.98Q252.80-7.52 252.80-10.96L252.80-10.96Q252.80-14.40 254.10-16.96Q255.40-19.52 257.68-20.88Q259.96-22.24 262.88-22.24L262.88-22.24ZM263.92-19Q260.56-19 258.54-16.86Q256.52-14.72 256.52-10.96L256.52-10.96Q256.52-7.20 258.54-5.06Q260.56-2.92 263.92-2.92L263.92-2.92Q266.08-2.92 267.78-3.92Q269.48-4.92 270.44-6.74Q271.40-8.56 271.40-10.96L271.40-10.96Q271.40-13.36 270.44-15.20Q269.48-17.04 267.78-18.02Q266.08-19 263.92-19L263.92-19Z M311.52-21.96L315.00-21.96L308.68 0L304.76 0L298.72-17.88L292.64 0L288.68 0L282.44-21.96L286.12-21.96L290.80-3.48L296.88-21.96L300.68-21.96L306.80-3.52L311.52-21.96Z M326.04-17.52Q327.12-19.80 329.20-21.06Q331.28-22.32 334.16-22.32L334.16-22.32L334.16-18.36L333.04-18.36Q329.96-18.36 328.00-16.78Q326.04-15.20 326.04-11.56L326.04-11.56L326.04 0L322.40 0L322.40-21.96L326.04-21.96L326.04-17.52Z M361.96-12.20Q361.96-11.04 361.80-10.20L361.80-10.20L344.24-10.20Q344.36-6.44 346.38-4.56Q348.40-2.68 351.32-2.68L351.32-2.68Q353.96-2.68 355.74-4.02Q357.52-5.36 357.92-7.60L357.92-7.60L361.80-7.60Q361.40-5.32 360.02-3.52Q358.64-1.72 356.44-0.72Q354.24 0.28 351.48 0.28L351.48 0.28Q348.32 0.28 345.88-1.08Q343.44-2.44 342.06-4.98Q340.68-7.52 340.68-10.96L340.68-10.96Q340.68-14.40 342.06-16.96Q343.44-19.52 345.88-20.88Q348.32-22.24 351.48-22.24L351.48-22.24Q354.68-22.24 357.06-20.88Q359.44-19.52 360.70-17.24Q361.96-14.96 361.96-12.20L361.96-12.20ZM358.28-11.96Q358.40-14.40 357.48-16.04Q356.56-17.68 354.96-18.48Q353.36-19.28 351.48-19.28L351.48-19.28Q348.48-19.28 346.44-17.42Q344.40-15.56 344.24-11.96L344.24-11.96L358.28-11.96Z M394.32-27.16Q391.40-27.20 390.26-26.16Q389.12-25.12 389.12-22.56L389.12-22.56L389.12-21.96L394.32-21.96L394.32-18.76L389.12-18.76L389.12 0L385.48 0L385.48-18.76L382.32-18.76L382.32-21.96L385.48-21.96L385.48-22.84Q385.48-30.72 394.32-30.36L394.32-30.36L394.32-27.16Z M412.24-22.24Q415.40-22.24 417.90-20.88Q420.40-19.52 421.82-16.96Q423.24-14.40 423.24-10.96L423.24-10.96Q423.24-7.52 421.82-4.98Q420.40-2.44 417.90-1.08Q415.40 0.28 412.24 0.28L412.24 0.28Q409.08 0.28 406.58-1.08Q404.08-2.44 402.64-4.98Q401.20-7.52 401.20-10.96L401.20-10.96Q401.20-14.40 402.64-16.96Q404.08-19.52 406.58-20.88Q409.08-22.24 412.24-22.24L412.24-22.24ZM412.24-19.04Q410.28-19.04 408.62-18.16Q406.96-17.28 405.94-15.46Q404.92-13.64 404.92-10.96L404.92-10.96Q404.92-8.32 405.94-6.50Q406.96-4.68 408.62-3.80Q410.28-2.92 412.24-2.92L412.24-2.92Q414.20-2.92 415.86-3.80Q417.52-4.68 418.54-6.50Q419.56-8.32 419.56-10.96L419.56-10.96Q419.56-13.64 418.54-15.46Q417.52-17.28 415.86-18.16Q414.20-19.04 412.24-19.04L412.24-19.04Z M435.64-17.52Q436.72-19.80 438.80-21.06Q440.88-22.32 443.76-22.32L443.76-22.32L443.76-18.36L442.64-18.36Q439.56-18.36 437.60-16.78Q435.64-15.20 435.64-11.56L435.64-11.56L435.64 0L432.00 0L432.00-21.96L435.64-21.96L435.64-17.52Z M485.44-12.20Q485.44-11.04 485.28-10.20L485.28-10.20L467.72-10.20Q467.84-6.44 469.86-4.56Q471.88-2.68 474.80-2.68L474.80-2.68Q477.44-2.68 479.22-4.02Q481.00-5.36 481.40-7.60L481.40-7.60L485.28-7.60Q484.88-5.32 483.50-3.52Q482.12-1.72 479.92-0.72Q477.72 0.28 474.96 0.28L474.96 0.28Q471.80 0.28 469.36-1.08Q466.92-2.44 465.54-4.98Q464.16-7.52 464.16-10.96L464.16-10.96Q464.16-14.40 465.54-16.96Q466.92-19.52 469.36-20.88Q471.80-22.24 474.96-22.24L474.96-22.24Q478.16-22.24 480.54-20.88Q482.92-19.52 484.18-17.24Q485.44-14.96 485.44-12.20L485.44-12.20ZM481.76-11.96Q481.88-14.40 480.96-16.04Q480.04-17.68 478.44-18.48Q476.84-19.28 474.96-19.28L474.96-19.28Q471.96-19.28 469.92-17.42Q467.88-15.56 467.72-11.96L467.72-11.96L481.76-11.96Z M503.92-27.16Q501.00-27.20 499.86-26.16Q498.72-25.12 498.72-22.56L498.72-22.56L498.72-21.96L503.92-21.96L503.92-18.76L498.72-18.76L498.72 0L495.08 0L495.08-18.76L491.92-18.76L491.92-21.96L495.08-21.96L495.08-22.84Q495.08-30.72 503.92-30.36L503.92-30.36L503.92-27.16Z M521.60-27.16Q518.68-27.20 517.54-26.16Q516.40-25.12 516.40-22.56L516.40-22.56L516.40-21.96L521.60-21.96L521.60-18.76L516.40-18.76L516.40 0L512.76 0L512.76-18.76L509.60-18.76L509.60-21.96L512.76-21.96L512.76-22.84Q512.76-30.72 521.60-30.36L521.60-30.36L521.60-27.16Z M549.76-12.20Q549.76-11.04 549.60-10.20L549.60-10.20L532.04-10.20Q532.16-6.44 534.18-4.56Q536.20-2.68 539.12-2.68L539.12-2.68Q541.76-2.68 543.54-4.02Q545.32-5.36 545.72-7.60L545.72-7.60L549.60-7.60Q549.20-5.32 547.82-3.52Q546.44-1.72 544.24-0.72Q542.04 0.28 539.28 0.28L539.28 0.28Q536.12 0.28 533.68-1.08Q531.24-2.44 529.86-4.98Q528.48-7.52 528.48-10.96L528.48-10.96Q528.48-14.40 529.86-16.96Q531.24-19.52 533.68-20.88Q536.12-22.24 539.28-22.24L539.28-22.24Q542.48-22.24 544.86-20.88Q547.24-19.52 548.50-17.24Q549.76-14.96 549.76-12.20L549.76-12.20ZM546.08-11.96Q546.20-14.40 545.28-16.04Q544.36-17.68 542.76-18.48Q541.16-19.28 539.28-19.28L539.28-19.28Q536.28-19.28 534.24-17.42Q532.20-15.56 532.04-11.96L532.04-11.96L546.08-11.96Z M568.24-22.24Q572.44-22.24 575.20-20Q577.96-17.76 578.60-14L578.60-14L574.76-14Q574.36-16.36 572.58-17.70Q570.80-19.04 568.16-19.04L568.16-19.04Q566.24-19.04 564.66-18.16Q563.08-17.28 562.12-15.46Q561.16-13.64 561.16-10.96L561.16-10.96Q561.16-8.28 562.12-6.46Q563.08-4.64 564.66-3.76Q566.24-2.88 568.16-2.88L568.16-2.88Q570.80-2.88 572.58-4.24Q574.36-5.60 574.76-7.96L574.76-7.96L578.60-7.96Q577.96-4.16 575.20-1.94Q572.44 0.28 568.24 0.28L568.24 0.28Q565.08 0.28 562.64-1.08Q560.20-2.44 558.82-4.98Q557.44-7.52 557.44-10.96L557.44-10.96Q557.44-14.40 558.82-16.96Q560.20-19.52 562.64-20.88Q565.08-22.24 568.24-22.24L568.24-22.24Z M586.72-28.40Q586.72-29.40 587.40-30.02Q588.08-30.64 589.20-30.64L589.20-30.64Q590.32-30.64 591.00-30.02Q591.68-29.40 591.68-28.40L591.68-28.40Q591.68-27.40 591.00-26.78Q590.32-26.16 589.20-26.16L589.20-26.16Q588.08-26.16 587.40-26.78Q586.72-27.40 586.72-28.40L586.72-28.40ZM587.36-21.96L591.00-21.96L591.00 0L587.36 0L587.36-21.96Z M621.04-12.20Q621.04-11.04 620.88-10.20L620.88-10.20L603.32-10.20Q603.44-6.44 605.46-4.56Q607.48-2.68 610.40-2.68L610.40-2.68Q613.04-2.68 614.82-4.02Q616.60-5.36 617-7.60L617-7.60L620.88-7.60Q620.48-5.32 619.10-3.52Q617.72-1.72 615.52-0.72Q613.32 0.28 610.56 0.28L610.56 0.28Q607.40 0.28 604.96-1.08Q602.52-2.44 601.14-4.98Q599.76-7.52 599.76-10.96L599.76-10.96Q599.76-14.40 601.14-16.96Q602.52-19.52 604.96-20.88Q607.40-22.24 610.56-22.24L610.56-22.24Q613.76-22.24 616.14-20.88Q618.52-19.52 619.78-17.24Q621.04-14.96 621.04-12.20L621.04-12.20ZM617.36-11.96Q617.48-14.40 616.56-16.04Q615.64-17.68 614.04-18.48Q612.44-19.28 610.56-19.28L610.56-19.28Q607.56-19.28 605.52-17.42Q603.48-15.56 603.32-11.96L603.32-11.96L617.36-11.96Z M641.36-22.32Q645.20-22.32 647.56-19.86Q649.92-17.40 649.92-12.76L649.92-12.76L649.92 0L646.28 0L646.28-12.44Q646.28-15.72 644.60-17.48Q642.92-19.24 640.04-19.24L640.04-19.24Q637.04-19.24 635.24-17.30Q633.44-15.36 633.44-11.64L633.44-11.64L633.44 0L629.80 0L629.80-21.96L633.44-21.96L633.44-16.76Q634.28-19.44 636.42-20.88Q638.56-22.32 641.36-22.32L641.36-22.32Z M669.24-22.24Q673.44-22.24 676.20-20Q678.96-17.76 679.60-14L679.60-14L675.76-14Q675.36-16.36 673.58-17.70Q671.80-19.04 669.16-19.04L669.16-19.04Q667.24-19.04 665.66-18.16Q664.08-17.28 663.12-15.46Q662.16-13.64 662.16-10.96L662.16-10.96Q662.16-8.28 663.12-6.46Q664.08-4.64 665.66-3.76Q667.24-2.88 669.16-2.88L669.16-2.88Q671.80-2.88 673.58-4.24Q675.36-5.60 675.76-7.96L675.76-7.96L679.60-7.96Q678.96-4.16 676.20-1.94Q673.44 0.28 669.24 0.28L669.24 0.28Q666.08 0.28 663.64-1.08Q661.20-2.44 659.82-4.98Q658.44-7.52 658.44-10.96L658.44-10.96Q658.44-14.40 659.82-16.96Q661.20-19.52 663.64-20.88Q666.08-22.24 669.24-22.24L669.24-22.24Z M685.80-21.96L689.88-21.96L697-4.68L703.60-21.96L707.64-21.96L694.60 10.40L690.48 10.40L695.04-0.36L685.80-21.96Z M716.12-28.88L720.16-28.88L719.64-8.28L716.64-8.28L716.12-28.88ZM715.96-4.28L720.40-4.28L720.40 0L715.96 0L715.96-4.28Z"/></g>
</svg>
</g><g opacity="1" transform="rotate(0 176.5375 267.1932)">
<svg width="364.3062" height="70" x="176.5375" y="267.1932" version="1.1" preserveAspectRatio="none" viewBox="1.52 -31.24 217.96 41.879999999999995">
  <g transform="matrix(1 0 0 1 0 0)" class="companyName"><path id="id-D6z1nYkh9" d="M10.48-22.60Q14.72-22.60 17.26-20.48Q19.80-18.36 20.44-14.88L20.44-14.88L14.04-14.88Q13.76-16.24 12.78-17.02Q11.80-17.80 10.32-17.80L10.32-17.80Q9.16-17.80 8.56-17.30Q7.96-16.80 7.96-15.88L7.96-15.88Q7.96-14.84 9.06-14.32Q10.16-13.80 12.52-13.28L12.52-13.28Q15.08-12.68 16.72-12.06Q18.36-11.44 19.56-10.04Q20.76-8.64 20.76-6.28L20.76-6.28Q20.76-4.36 19.72-2.88Q18.68-1.40 16.72-0.56Q14.76 0.28 12.08 0.28L12.08 0.28Q7.56 0.28 4.84-1.72Q2.12-3.72 1.52-7.44L1.52-7.44L8.12-7.44Q8.28-6 9.34-5.24Q10.40-4.48 12.08-4.48L12.08-4.48Q13.24-4.48 13.84-5.02Q14.44-5.56 14.44-6.44L14.44-6.44Q14.44-7.60 13.34-8.10Q12.24-8.60 9.76-9.16L9.76-9.16Q7.28-9.68 5.68-10.28Q4.08-10.88 2.92-12.22Q1.76-13.56 1.76-15.88L1.76-15.88Q1.76-18.88 4.04-20.74Q6.32-22.60 10.48-22.60L10.48-22.60Z M35.80-22.60Q39.12-22.60 41.74-21.22Q44.36-19.84 45.86-17.24Q47.36-14.64 47.36-11.16L47.36-11.16Q47.36-7.68 45.86-5.08Q44.36-2.48 41.74-1.10Q39.12 0.28 35.80 0.28L35.80 0.28Q32.48 0.28 29.84-1.10Q27.20-2.48 25.70-5.08Q24.20-7.68 24.20-11.16L24.20-11.16Q24.20-14.64 25.70-17.24Q27.20-19.84 29.84-21.22Q32.48-22.60 35.80-22.60L35.80-22.60ZM35.80-16.68Q33.84-16.68 32.50-15.26Q31.16-13.84 31.16-11.16L31.16-11.16Q31.16-8.48 32.50-7.08Q33.84-5.68 35.80-5.68L35.80-5.68Q37.76-5.68 39.08-7.08Q40.40-8.48 40.40-11.16L40.40-11.16Q40.40-13.84 39.08-15.26Q37.76-16.68 35.80-16.68L35.80-16.68Z M63.44-25.32L62.68-25.36Q61-25.36 60.24-24.64Q59.48-23.92 59.40-22.32L59.40-22.32L63.44-22.32L63.44-16.56L59.40-16.56L59.40 0L52.56 0L52.56-16.56L49.88-16.56L49.88-22.32L52.56-22.32L52.56-22.56Q52.56-26.72 54.98-28.98Q57.40-31.24 62-31.24L62-31.24Q62.96-31.24 63.44-31.20L63.44-31.20L63.44-25.32Z M77.68-22.60Q81-22.60 83.62-21.22Q86.24-19.84 87.74-17.24Q89.24-14.64 89.24-11.16L89.24-11.16Q89.24-7.68 87.74-5.08Q86.24-2.48 83.62-1.10Q81 0.28 77.68 0.28L77.68 0.28Q74.36 0.28 71.72-1.10Q69.08-2.48 67.58-5.08Q66.08-7.68 66.08-11.16L66.08-11.16Q66.08-14.64 67.58-17.24Q69.08-19.84 71.72-21.22Q74.36-22.60 77.68-22.60L77.68-22.60ZM77.68-16.68Q75.72-16.68 74.38-15.26Q73.04-13.84 73.04-11.16L73.04-11.16Q73.04-8.48 74.38-7.08Q75.72-5.68 77.68-5.68L77.68-5.68Q79.64-5.68 80.96-7.08Q82.28-8.48 82.28-11.16L82.28-11.16Q82.28-13.84 80.96-15.26Q79.64-16.68 77.68-16.68L77.68-16.68Z M107.76-22.56Q111.60-22.56 113.86-20Q116.12-17.44 116.12-12.96L116.12-12.96L116.12 0L109.28 0L109.28-12.16Q109.28-14.40 108.10-15.66Q106.92-16.92 104.96-16.92L104.96-16.92Q102.88-16.92 101.66-15.60Q100.44-14.28 100.44-11.84L100.44-11.84L100.44 0L93.60 0L93.60-22.32L100.44-22.32L100.44-18.24Q101.40-20.24 103.30-21.40Q105.20-22.56 107.76-22.56L107.76-22.56Z M142.64-11.76Q142.64-10.92 142.44-9.92L142.44-9.92L126.96-9.92Q127.08-7.40 128.24-6.30Q129.40-5.20 131.20-5.20L131.20-5.20Q132.72-5.20 133.72-5.96Q134.72-6.72 135.04-7.92L135.04-7.92L142.28-7.92Q141.84-5.56 140.36-3.70Q138.88-1.84 136.60-0.78Q134.32 0.28 131.52 0.28L131.52 0.28Q128.24 0.28 125.70-1.10Q123.16-2.48 121.72-5.08Q120.28-7.68 120.28-11.16L120.28-11.16Q120.28-14.68 121.70-17.26Q123.12-19.84 125.68-21.22Q128.24-22.60 131.52-22.60L131.52-22.60Q134.84-22.60 137.36-21.24Q139.88-19.88 141.26-17.42Q142.64-14.96 142.64-11.76L142.64-11.76ZM135.72-12.80Q135.76-15 134.54-16.10Q133.32-17.20 131.52-17.20L131.52-17.20Q129.64-17.20 128.40-16.08Q127.16-14.96 127-12.80L127-12.80L135.72-12.80Z M144.52-22.32L152.16-22.32L157.52-8.64L162.52-22.32L170.08-22.32L156.16 10.64L148.64 10.64L153.88-0.84L144.52-22.32Z M181.64-22.60Q184.20-22.60 186.04-21.44Q187.88-20.28 188.76-18.28L188.76-18.28L188.76-22.32L195.56-22.32L195.56 0L188.76 0L188.76-4.04Q187.88-2.04 186.04-0.88Q184.20 0.28 181.64 0.28L181.64 0.28Q178.88 0.28 176.70-1.10Q174.52-2.48 173.26-5.08Q172-7.68 172-11.16L172-11.16Q172-14.68 173.26-17.26Q174.52-19.84 176.70-21.22Q178.88-22.60 181.64-22.60L181.64-22.60ZM183.84-16.60Q181.64-16.60 180.30-15.16Q178.96-13.72 178.96-11.16L178.96-11.16Q178.96-8.60 180.30-7.16Q181.64-5.72 183.84-5.72L183.84-5.72Q186-5.72 187.38-7.20Q188.76-8.68 188.76-11.16L188.76-11.16Q188.76-13.68 187.38-15.14Q186-16.60 183.84-16.60L183.84-16.60Z M209.20-22.60Q213.44-22.60 215.98-20.48Q218.52-18.36 219.16-14.88L219.16-14.88L212.76-14.88Q212.48-16.24 211.50-17.02Q210.52-17.80 209.04-17.80L209.04-17.80Q207.88-17.80 207.28-17.30Q206.68-16.80 206.68-15.88L206.68-15.88Q206.68-14.84 207.78-14.32Q208.88-13.80 211.24-13.28L211.24-13.28Q213.80-12.68 215.44-12.06Q217.08-11.44 218.28-10.04Q219.48-8.64 219.48-6.28L219.48-6.28Q219.48-4.36 218.44-2.88Q217.40-1.40 215.44-0.56Q213.48 0.28 210.80 0.28L210.80 0.28Q206.28 0.28 203.56-1.72Q200.84-3.72 200.24-7.44L200.24-7.44L206.84-7.44Q207.00-6 208.06-5.24Q209.12-4.48 210.80-4.48L210.80-4.48Q211.96-4.48 212.56-5.02Q213.16-5.56 213.16-6.44L213.16-6.44Q213.16-7.60 212.06-8.10Q210.96-8.60 208.48-9.16L208.48-9.16Q206.00-9.68 204.40-10.28Q202.80-10.88 201.64-12.22Q200.48-13.56 200.48-15.88L200.48-15.88Q200.48-18.88 202.76-20.74Q205.04-22.60 209.20-22.60L209.20-22.60Z"/></g>
</svg>
</g></svg></svg>